<svg xmlns="http://www.w3.org/2000/svg" xml:space="preserve" viewBox="0 0 960 510" font-family="'Segoe UI', Helvetica, Arial, sans-serif" role="img" aria-label="Řez náporovým motorem zleva doprava: vstup vzduchu, palivové hořáky, spalovací komora s plamenem a výstupní tryska; modré šipky vzduchu a hnědé šipky výfukových plynů míří zleva doprava.">
<defs>
<marker id="a-cer" markerUnits="userSpaceOnUse" markerWidth="18" markerHeight="18" refX="15" refY="9" orient="auto"><path d="M0,0 L18,9 L0,18 z" fill="#e03131"/></marker>
<marker id="a-mod" markerUnits="userSpaceOnUse" markerWidth="18" markerHeight="18" refX="15" refY="9" orient="auto"><path d="M0,0 L18,9 L0,18 z" fill="#1971c2"/></marker>
<marker id="a-zel" markerUnits="userSpaceOnUse" markerWidth="18" markerHeight="18" refX="15" refY="9" orient="auto"><path d="M0,0 L18,9 L0,18 z" fill="#2f9e44"/></marker>
<marker id="a-ora" markerUnits="userSpaceOnUse" markerWidth="18" markerHeight="18" refX="15" refY="9" orient="auto"><path d="M0,0 L18,9 L0,18 z" fill="#e8590c"/></marker>
<marker id="a-ink" markerUnits="userSpaceOnUse" markerWidth="18" markerHeight="18" refX="15" refY="9" orient="auto"><path d="M0,0 L18,9 L0,18 z" fill="#2b2a26"/></marker>
<marker id="a-sed" markerUnits="userSpaceOnUse" markerWidth="18" markerHeight="18" refX="15" refY="9" orient="auto"><path d="M0,0 L18,9 L0,18 z" fill="#495057"/></marker>
<marker id="a-zlu" markerUnits="userSpaceOnUse" markerWidth="18" markerHeight="18" refX="15" refY="9" orient="auto"><path d="M0,0 L18,9 L0,18 z" fill="#f08c00"/></marker>
<marker id="a-fia" markerUnits="userSpaceOnUse" markerWidth="18" markerHeight="18" refX="15" refY="9" orient="auto"><path d="M0,0 L18,9 L0,18 z" fill="#7048e8"/></marker>
<marker id="b-cer" markerUnits="userSpaceOnUse" markerWidth="26" markerHeight="26" refX="23" refY="13" orient="auto"><path d="M0,0 L26,13 L0,26 z" fill="#e03131"/></marker>
<marker id="b-zel" markerUnits="userSpaceOnUse" markerWidth="26" markerHeight="26" refX="23" refY="13" orient="auto"><path d="M0,0 L26,13 L0,26 z" fill="#2f9e44"/></marker>
<marker id="b-mod" markerUnits="userSpaceOnUse" markerWidth="26" markerHeight="26" refX="23" refY="13" orient="auto"><path d="M0,0 L26,13 L0,26 z" fill="#1971c2"/></marker>
<marker id="b-ora" markerUnits="userSpaceOnUse" markerWidth="26" markerHeight="26" refX="23" refY="13" orient="auto"><path d="M0,0 L26,13 L0,26 z" fill="#e8590c"/></marker>
<marker id="b-ink" markerUnits="userSpaceOnUse" markerWidth="26" markerHeight="26" refX="23" refY="13" orient="auto"><path d="M0,0 L26,13 L0,26 z" fill="#2b2a26"/></marker>
<marker id="b-hn" markerUnits="userSpaceOnUse" markerWidth="26" markerHeight="26" refX="23" refY="13" orient="auto"><path d="M0,0 L26,13 L0,26 z" fill="#8d6e63"/></marker>
</defs>
<rect x="3" y="3" width="954" height="504" rx="14" fill="#f8f9fa" stroke="#2b2a26" stroke-width="3"/>
<path d="M200,196 Q260,166 350,166 L560,166 Q680,170 790,206 L790,294 Q680,330 560,334 L350,334 Q260,334 200,304 Z" fill="#e7f5ff" stroke="#495057" stroke-width="5" stroke-linejoin="round" stroke-linecap="round"/>
<path d="M215,200 Q262,178 350,178 L380,178 L380,322 L350,322 Q262,322 215,300 Z" fill="#d0ebff" stroke="none" stroke-width="0" stroke-linejoin="round" stroke-linecap="round"/>
<rect x="380.0" y="178.0" width="190.0" height="144.0" rx="0" fill="#ff922b" stroke="none" stroke-width="0"/>
<path d="M570,178 Q680,182 780,214 L780,286 Q680,318 570,322 Z" fill="#d7ccc8" stroke="none" stroke-width="0" stroke-linejoin="round" stroke-linecap="round"/>
<path d="M400.0,300.0 L420.0,230.0 L440.0,270.0 L470.0,210.0 L500.0,270.0 L530.0,225.0 L550.0,300.0 z" fill="#ffe066" stroke="#e8590c" stroke-width="3" stroke-linejoin="round" stroke-linecap="round"/>
<rect x="364.0" y="178.0" width="16.0" height="144.0" rx="2" fill="#868e96" stroke="#2b2a26" stroke-width="3"/>
<line x1="380.0" y1="196.0" x2="398.0" y2="196.0" stroke="#2b2a26" stroke-width="5" stroke-linecap="round"/>
<line x1="380.0" y1="226.0" x2="398.0" y2="226.0" stroke="#2b2a26" stroke-width="5" stroke-linecap="round"/>
<line x1="380.0" y1="256.0" x2="398.0" y2="256.0" stroke="#2b2a26" stroke-width="5" stroke-linecap="round"/>
<line x1="380.0" y1="286.0" x2="398.0" y2="286.0" stroke="#2b2a26" stroke-width="5" stroke-linecap="round"/>
<line x1="380.0" y1="314.0" x2="398.0" y2="314.0" stroke="#2b2a26" stroke-width="5" stroke-linecap="round"/>
<line x1="120.0" y1="222.0" x2="340.0" y2="222.0" stroke="#1971c2" stroke-width="6" marker-end="url(#b-mod)" stroke-linecap="round"/>
<line x1="590.0" y1="222.0" x2="800.0" y2="222.0" stroke="#8d6e63" stroke-width="6" marker-end="url(#b-hn)" stroke-linecap="round"/>
<line x1="120.0" y1="250.0" x2="340.0" y2="250.0" stroke="#1971c2" stroke-width="6" marker-end="url(#b-mod)" stroke-linecap="round"/>
<line x1="590.0" y1="250.0" x2="800.0" y2="250.0" stroke="#8d6e63" stroke-width="6" marker-end="url(#b-hn)" stroke-linecap="round"/>
<line x1="120.0" y1="278.0" x2="340.0" y2="278.0" stroke="#1971c2" stroke-width="6" marker-end="url(#b-mod)" stroke-linecap="round"/>
<line x1="590.0" y1="278.0" x2="800.0" y2="278.0" stroke="#8d6e63" stroke-width="6" marker-end="url(#b-hn)" stroke-linecap="round"/>
<text x="200.0" y="100.0" font-size="24" font-weight="bold" fill="#2b2a26" text-anchor="middle" stroke="#f8f9fa" stroke-width="6" paint-order="stroke">palivové hořáky</text>
<line x1="300.0" y1="110.0" x2="368.0" y2="190.0" stroke="#f8f9fa" stroke-width="6" stroke-linecap="round"/>
<line x1="300.0" y1="110.0" x2="368.0" y2="190.0" stroke="#212529" stroke-width="2.5" stroke-linecap="round"/>
<text x="640.0" y="100.0" font-size="24" font-weight="bold" fill="#2b2a26" text-anchor="middle" stroke="#f8f9fa" stroke-width="6" paint-order="stroke">spalovací komora</text>
<line x1="600.0" y1="112.0" x2="500.0" y2="232.0" stroke="#f8f9fa" stroke-width="6" stroke-linecap="round"/>
<line x1="600.0" y1="112.0" x2="500.0" y2="232.0" stroke="#212529" stroke-width="2.5" stroke-linecap="round"/>
<text x="190.0" y="400.0" font-size="24" font-weight="bold" fill="#2b2a26" text-anchor="middle" stroke="#f8f9fa" stroke-width="6" paint-order="stroke">vstup vzduchu</text>
<line x1="190.0" y1="384.0" x2="215.0" y2="306.0" stroke="#f8f9fa" stroke-width="6" stroke-linecap="round"/>
<line x1="190.0" y1="384.0" x2="215.0" y2="306.0" stroke="#212529" stroke-width="2.5" stroke-linecap="round"/>
<text x="690.0" y="400.0" font-size="24" font-weight="bold" fill="#2b2a26" text-anchor="middle" stroke="#f8f9fa" stroke-width="6" paint-order="stroke">výstupní tryska</text>
<line x1="680.0" y1="384.0" x2="650.0" y2="322.0" stroke="#f8f9fa" stroke-width="6" stroke-linecap="round"/>
<line x1="680.0" y1="384.0" x2="650.0" y2="322.0" stroke="#212529" stroke-width="2.5" stroke-linecap="round"/>
<rect x="220.0" y="440.0" width="520.0" height="44.0" rx="12" fill="#fff3bf" stroke="#f08c00" stroke-width="2"/>
<text x="480.0" y="469.0" font-size="20" fill="#2b2a26" text-anchor="middle">Vzduch do motoru natlačí rychlost letu.</text>
</svg>
