<svg xmlns="http://www.w3.org/2000/svg" viewBox="0 0 900 820" font-family="'Segoe UI', Helvetica, Arial, sans-serif" role="img" aria-label="Reostat zapojený za sebou se žárovkou, baterií a spínačem; připojená je pravá krajní svorka a svorka jezdce. Proud prochází jen částí drátu mezi jezdcem a pravým koncem. Dole schéma. Animace: jezdec se posouvá doleva, zapojený drát se prodlužuje, odpor roste, proud slábne a žárovka svítí slaběji; pak se jezdec vrací a žárovka se rozjasní.">
<style>
/* Předloha: PDF lekce 30, s. 6 (reostat: rezistor se šipkou vlevo nahoře, žárovka vpravo, článek + vpravo dole, spínač vlevo dole;
   připojen jezdec a jedna krajní svorka). Skutečný obvod nakreslen ve stejném uspořádání jako schéma.
   8 s: 0–12 % jezdec u pravého konce (krátký drát, jasné světlo), 12–44 % jede doleva, 44–62 % dlouhý drát a slabé světlo, 62–94 % zpět.
   Bez animace = koncový stav: jezdec u pravého konce, žárovka svítí jasně. Žádná čísla (výklad je nemá). */
.jz { animation: jz 8s ease-in-out infinite; }
@keyframes jz { 0%, 12% { transform: translateX(0); } 44%, 62% { transform: translateX(-164px); } 94%, 100% { transform: translateX(0); } }
.pas { transform-box: fill-box; transform-origin: right center; animation: pas 8s ease-in-out infinite; }
@keyframes pas { 0%, 12% { transform: scaleX(1); } 44%, 62% { transform: scaleX(5.8235); } 94%, 100% { transform: scaleX(1); } }
.svit { animation: svit 8s ease-in-out infinite; }
@keyframes svit { 0%, 12% { opacity: 1; } 44%, 62% { opacity: 0.2; } 94%, 100% { opacity: 1; } }
.proud { animation: proud 8s ease-in-out infinite; }
@keyframes proud { 0%, 12% { opacity: 1; } 44%, 62% { opacity: 0.25; } 94%, 100% { opacity: 1; } }
@media (prefers-reduced-motion: reduce) { .jz, .pas, .svit, .proud { animation: none; } }
</style>
<defs>
<linearGradient id="g-kov" x1="0" y1="0" x2="0" y2="1"><stop offset="0" stop-color="#f8f9fa"/><stop offset="0.35" stop-color="#ced4da"/><stop offset="0.6" stop-color="#f1f3f5"/><stop offset="1" stop-color="#868e96"/></linearGradient>
<linearGradient id="g-kovh" x1="0" y1="0" x2="1" y2="0"><stop offset="0" stop-color="#868e96"/><stop offset="0.4" stop-color="#f1f3f5"/><stop offset="0.7" stop-color="#dee2e6"/><stop offset="1" stop-color="#868e96"/></linearGradient>
<linearGradient id="g-zakl" x1="0" y1="0" x2="0" y2="1"><stop offset="0" stop-color="#f1f3f5"/><stop offset="0.5" stop-color="#adb5bd"/><stop offset="1" stop-color="#495057"/></linearGradient>
<linearGradient id="g-valec" x1="0" y1="0" x2="0" y2="1"><stop offset="0" stop-color="#e9ecef"/><stop offset="0.3" stop-color="#ffffff"/><stop offset="1" stop-color="#868e96"/></linearGradient>
<linearGradient id="g-civka" x1="0" y1="0" x2="0" y2="1"><stop offset="0" stop-color="#495057"/><stop offset="0.3" stop-color="#868e96"/><stop offset="0.55" stop-color="#343a40"/><stop offset="1" stop-color="#212529"/></linearGradient>
<linearGradient id="g-mosaz" x1="0" y1="0" x2="0" y2="1"><stop offset="0" stop-color="#f3d9a4"/><stop offset="0.45" stop-color="#c9a24d"/><stop offset="1" stop-color="#8a6a25"/></linearGradient>
<linearGradient id="g-mosazh" x1="0" y1="0" x2="1" y2="0"><stop offset="0" stop-color="#8a6a25"/><stop offset="0.35" stop-color="#f3d9a4"/><stop offset="0.7" stop-color="#c9a24d"/><stop offset="1" stop-color="#8a6a25"/></linearGradient>
<linearGradient id="g-meda" x1="0" y1="0" x2="0" y2="1"><stop offset="0" stop-color="#d9773a"/><stop offset="0.4" stop-color="#9c4a17"/><stop offset="1" stop-color="#6b300c"/></linearGradient>
<linearGradient id="g-cerna" x1="0" y1="0" x2="0" y2="1"><stop offset="0" stop-color="#868e96"/><stop offset="0.35" stop-color="#343a40"/><stop offset="1" stop-color="#16191c"/></linearGradient>
<radialGradient id="g-zar"><stop offset="0" stop-color="#fff3bf"/><stop offset="0.6" stop-color="#ffe066" stop-opacity="0.7"/><stop offset="1" stop-color="#ffe066" stop-opacity="0"/></radialGradient>
<marker id="v-ora" viewBox="0 0 10 10" refX="5" refY="5" markerWidth="3" markerHeight="3" orient="auto"><path d="M0 0L10 5L0 10Z" fill="#e8590c"/></marker>
<marker id="v-ink" viewBox="0 0 10 10" refX="8" refY="5" markerWidth="5" markerHeight="5" orient="auto"><path d="M0 0L10 5L0 10Z" fill="#212529"/></marker>
<marker id="v-ink2" viewBox="0 0 10 10" refX="5" refY="5" markerWidth="4" markerHeight="4" orient="auto-start-reverse"><path d="M0 0L10 5L0 10Z" fill="#212529"/></marker>
</defs>
<rect x="3" y="3" width="894" height="814" rx="14" fill="#f8f9fa"/>
<text x="450.0" y="40" font-size="26" font-weight="bold" fill="#212529" text-anchor="middle">Reostat mění proud</text><g><rect x="90" y="290" width="440" height="22" rx="9" fill="url(#g-zakl)" stroke="#495057" stroke-width="2"/><path d="M108 291 Q108 260 136 260 H160 V291 Z" fill="url(#g-kov)" stroke="#868e96" stroke-width="1.5"/><path d="M512 291 Q512 260 484 260 H460 V291 Z" fill="url(#g-kov)" stroke="#868e96" stroke-width="1.5"/><rect x="130" y="110" width="24" height="182" rx="5" fill="url(#g-kovh)" stroke="#868e96" stroke-width="1.5"/><rect x="122" y="196" width="8" height="8" fill="#adb5bd" stroke="#868e96"/><rect x="466" y="110" width="24" height="182" rx="5" fill="url(#g-kovh)" stroke="#868e96" stroke-width="1.5"/><rect x="490" y="196" width="8" height="8" fill="#adb5bd" stroke="#868e96"/><rect x="112" y="128" width="396" height="10" rx="3" fill="url(#g-kov)" stroke="#868e96" stroke-width="1.2"/><rect x="90" y="118" width="30" height="30" rx="4" fill="url(#g-cerna)" stroke="#16191c" stroke-width="1.5"/><line x1="93" y1="120" x2="93" y2="146" stroke="#868e96" stroke-width="1"/><line x1="97" y1="120" x2="97" y2="146" stroke="#868e96" stroke-width="1"/><line x1="101" y1="120" x2="101" y2="146" stroke="#868e96" stroke-width="1"/><line x1="105" y1="120" x2="105" y2="146" stroke="#868e96" stroke-width="1"/><line x1="109" y1="120" x2="109" y2="146" stroke="#868e96" stroke-width="1"/><line x1="113" y1="120" x2="113" y2="146" stroke="#868e96" stroke-width="1"/><line x1="117" y1="120" x2="117" y2="146" stroke="#868e96" stroke-width="1"/><rect x="500" y="118" width="30" height="30" rx="4" fill="url(#g-cerna)" stroke="#16191c" stroke-width="1.5"/><line x1="503" y1="120" x2="503" y2="146" stroke="#868e96" stroke-width="1"/><line x1="507" y1="120" x2="507" y2="146" stroke="#868e96" stroke-width="1"/><line x1="511" y1="120" x2="511" y2="146" stroke="#868e96" stroke-width="1"/><line x1="515" y1="120" x2="515" y2="146" stroke="#868e96" stroke-width="1"/><line x1="519" y1="120" x2="519" y2="146" stroke="#868e96" stroke-width="1"/><line x1="523" y1="120" x2="523" y2="146" stroke="#868e96" stroke-width="1"/><line x1="527" y1="120" x2="527" y2="146" stroke="#868e96" stroke-width="1"/><rect x="162" y="170" width="296" height="100" rx="10" fill="url(#g-valec)" stroke="#868e96" stroke-width="1.5"/><rect x="162" y="162" width="18" height="116" rx="5" fill="url(#g-kovh)" stroke="#868e96" stroke-width="1.5"/><rect x="440" y="162" width="18" height="116" rx="5" fill="url(#g-kovh)" stroke="#868e96" stroke-width="1.5"/><rect x="198" y="174" width="224" height="92" fill="url(#g-civka)"/><path d="M201 175 L199 265" stroke="#16191c" stroke-width="2.4"/><path d="M203.5 177 L201.5 263" stroke="#ced4da" stroke-width="1" opacity="0.7"/><path d="M207 175 L205 265" stroke="#16191c" stroke-width="2.4"/><path d="M209.5 177 L207.5 263" stroke="#ced4da" stroke-width="1" opacity="0.7"/><path d="M213 175 L211 265" stroke="#16191c" stroke-width="2.4"/><path d="M215.5 177 L213.5 263" stroke="#ced4da" stroke-width="1" opacity="0.7"/><path d="M219 175 L217 265" stroke="#16191c" stroke-width="2.4"/><path d="M221.5 177 L219.5 263" stroke="#ced4da" stroke-width="1" opacity="0.7"/><path d="M225 175 L223 265" stroke="#16191c" stroke-width="2.4"/><path d="M227.5 177 L225.5 263" stroke="#ced4da" stroke-width="1" opacity="0.7"/><path d="M231 175 L229 265" stroke="#16191c" stroke-width="2.4"/><path d="M233.5 177 L231.5 263" stroke="#ced4da" stroke-width="1" opacity="0.7"/><path d="M237 175 L235 265" stroke="#16191c" stroke-width="2.4"/><path d="M239.5 177 L237.5 263" stroke="#ced4da" stroke-width="1" opacity="0.7"/><path d="M243 175 L241 265" stroke="#16191c" stroke-width="2.4"/><path d="M245.5 177 L243.5 263" stroke="#ced4da" stroke-width="1" opacity="0.7"/><path d="M249 175 L247 265" stroke="#16191c" stroke-width="2.4"/><path d="M251.5 177 L249.5 263" stroke="#ced4da" stroke-width="1" opacity="0.7"/><path d="M255 175 L253 265" stroke="#16191c" stroke-width="2.4"/><path d="M257.5 177 L255.5 263" stroke="#ced4da" stroke-width="1" opacity="0.7"/><path d="M261 175 L259 265" stroke="#16191c" stroke-width="2.4"/><path d="M263.5 177 L261.5 263" stroke="#ced4da" stroke-width="1" opacity="0.7"/><path d="M267 175 L265 265" stroke="#16191c" stroke-width="2.4"/><path d="M269.5 177 L267.5 263" stroke="#ced4da" stroke-width="1" opacity="0.7"/><path d="M273 175 L271 265" stroke="#16191c" stroke-width="2.4"/><path d="M275.5 177 L273.5 263" stroke="#ced4da" stroke-width="1" opacity="0.7"/><path d="M279 175 L277 265" stroke="#16191c" stroke-width="2.4"/><path d="M281.5 177 L279.5 263" stroke="#ced4da" stroke-width="1" opacity="0.7"/><path d="M285 175 L283 265" stroke="#16191c" stroke-width="2.4"/><path d="M287.5 177 L285.5 263" stroke="#ced4da" stroke-width="1" opacity="0.7"/><path d="M291 175 L289 265" stroke="#16191c" stroke-width="2.4"/><path d="M293.5 177 L291.5 263" stroke="#ced4da" stroke-width="1" opacity="0.7"/><path d="M297 175 L295 265" stroke="#16191c" stroke-width="2.4"/><path d="M299.5 177 L297.5 263" stroke="#ced4da" stroke-width="1" opacity="0.7"/><path d="M303 175 L301 265" stroke="#16191c" stroke-width="2.4"/><path d="M305.5 177 L303.5 263" stroke="#ced4da" stroke-width="1" opacity="0.7"/><path d="M309 175 L307 265" stroke="#16191c" stroke-width="2.4"/><path d="M311.5 177 L309.5 263" stroke="#ced4da" stroke-width="1" opacity="0.7"/><path d="M315 175 L313 265" stroke="#16191c" stroke-width="2.4"/><path d="M317.5 177 L315.5 263" stroke="#ced4da" stroke-width="1" opacity="0.7"/><path d="M321 175 L319 265" stroke="#16191c" stroke-width="2.4"/><path d="M323.5 177 L321.5 263" stroke="#ced4da" stroke-width="1" opacity="0.7"/><path d="M327 175 L325 265" stroke="#16191c" stroke-width="2.4"/><path d="M329.5 177 L327.5 263" stroke="#ced4da" stroke-width="1" opacity="0.7"/><path d="M333 175 L331 265" stroke="#16191c" stroke-width="2.4"/><path d="M335.5 177 L333.5 263" stroke="#ced4da" stroke-width="1" opacity="0.7"/><path d="M339 175 L337 265" stroke="#16191c" stroke-width="2.4"/><path d="M341.5 177 L339.5 263" stroke="#ced4da" stroke-width="1" opacity="0.7"/><path d="M345 175 L343 265" stroke="#16191c" stroke-width="2.4"/><path d="M347.5 177 L345.5 263" stroke="#ced4da" stroke-width="1" opacity="0.7"/><path d="M351 175 L349 265" stroke="#16191c" stroke-width="2.4"/><path d="M353.5 177 L351.5 263" stroke="#ced4da" stroke-width="1" opacity="0.7"/><path d="M357 175 L355 265" stroke="#16191c" stroke-width="2.4"/><path d="M359.5 177 L357.5 263" stroke="#ced4da" stroke-width="1" opacity="0.7"/><path d="M363 175 L361 265" stroke="#16191c" stroke-width="2.4"/><path d="M365.5 177 L363.5 263" stroke="#ced4da" stroke-width="1" opacity="0.7"/><path d="M369 175 L367 265" stroke="#16191c" stroke-width="2.4"/><path d="M371.5 177 L369.5 263" stroke="#ced4da" stroke-width="1" opacity="0.7"/><path d="M375 175 L373 265" stroke="#16191c" stroke-width="2.4"/><path d="M377.5 177 L375.5 263" stroke="#ced4da" stroke-width="1" opacity="0.7"/><path d="M381 175 L379 265" stroke="#16191c" stroke-width="2.4"/><path d="M383.5 177 L381.5 263" stroke="#ced4da" stroke-width="1" opacity="0.7"/><path d="M387 175 L385 265" stroke="#16191c" stroke-width="2.4"/><path d="M389.5 177 L387.5 263" stroke="#ced4da" stroke-width="1" opacity="0.7"/><path d="M393 175 L391 265" stroke="#16191c" stroke-width="2.4"/><path d="M395.5 177 L393.5 263" stroke="#ced4da" stroke-width="1" opacity="0.7"/><path d="M399 175 L397 265" stroke="#16191c" stroke-width="2.4"/><path d="M401.5 177 L399.5 263" stroke="#ced4da" stroke-width="1" opacity="0.7"/><path d="M405 175 L403 265" stroke="#16191c" stroke-width="2.4"/><path d="M407.5 177 L405.5 263" stroke="#ced4da" stroke-width="1" opacity="0.7"/><path d="M411 175 L409 265" stroke="#16191c" stroke-width="2.4"/><path d="M413.5 177 L411.5 263" stroke="#ced4da" stroke-width="1" opacity="0.7"/><path d="M417 175 L415 265" stroke="#16191c" stroke-width="2.4"/><path d="M419.5 177 L417.5 263" stroke="#ced4da" stroke-width="1" opacity="0.7"/><path d="M171 270 V280" stroke="#adb5bd" stroke-width="6"/><path d="M449 270 V280" stroke="#adb5bd" stroke-width="6"/><circle cx="171" cy="280" r="14" fill="url(#g-cerna)" stroke="#adb5bd" stroke-width="3"/><circle cx="171" cy="280" r="6" fill="#495057" stroke="#16191c" stroke-width="1.5"/><circle cx="188.0" cy="280.0" r="1.8" fill="#343a40"/><circle cx="183.0" cy="292.0" r="1.8" fill="#343a40"/><circle cx="171.0" cy="297.0" r="1.8" fill="#343a40"/><circle cx="159.0" cy="292.0" r="1.8" fill="#343a40"/><circle cx="154.0" cy="280.0" r="1.8" fill="#343a40"/><circle cx="159.0" cy="268.0" r="1.8" fill="#343a40"/><circle cx="171.0" cy="263.0" r="1.8" fill="#343a40"/><circle cx="183.0" cy="268.0" r="1.8" fill="#343a40"/><circle cx="449" cy="280" r="14" fill="url(#g-cerna)" stroke="#adb5bd" stroke-width="3"/><circle cx="449" cy="280" r="6" fill="#495057" stroke="#16191c" stroke-width="1.5"/><circle cx="466.0" cy="280.0" r="1.8" fill="#343a40"/><circle cx="461.0" cy="292.0" r="1.8" fill="#343a40"/><circle cx="449.0" cy="297.0" r="1.8" fill="#343a40"/><circle cx="437.0" cy="292.0" r="1.8" fill="#343a40"/><circle cx="432.0" cy="280.0" r="1.8" fill="#343a40"/><circle cx="437.0" cy="268.0" r="1.8" fill="#343a40"/><circle cx="449.0" cy="263.0" r="1.8" fill="#343a40"/><circle cx="461.0" cy="268.0" r="1.8" fill="#343a40"/></g><rect class="pas" x="388" y="172" width="34" height="96" fill="#e8590c" opacity="0.4"/><clipPath id="kv"><rect x="44" y="0" width="900" height="820"/></clipPath><path d="M50 74 Q44 74 44 92 V450 Q44 478 72 478 H213" fill="none" stroke="#495057" stroke-width="6" stroke-linecap="round" stroke-linejoin="round"/><path d="M50 74 Q44 74 44 92 V450 Q44 478 72 478 H213" fill="none" stroke="#adb5bd" stroke-width="1.5" stroke-linecap="round" opacity="0.8"/><g clip-path="url(#kv)"><g class="jz"><path d="M388 92 V74 H-400" fill="none" stroke="#495057" stroke-width="6" stroke-linecap="round" stroke-linejoin="round"/><path d="M388 92 V74 H-400" fill="none" stroke="#adb5bd" stroke-width="1.5" stroke-linecap="round" opacity="0.8"/><rect x="358" y="114" width="60" height="36" rx="7" fill="url(#g-kov)" stroke="#495057" stroke-width="2"/><path d="M379 150 H397 L392 172 H384 Z" fill="url(#g-kovh)" stroke="#495057" stroke-width="1.5"/><rect x="371" y="169" width="34" height="8" rx="3" fill="#868e96" stroke="#343a40" stroke-width="1.5"/><rect x="384" y="106" width="8" height="10" fill="#adb5bd" stroke="#495057"/><rect x="376" y="92" width="24" height="16" rx="4" fill="url(#g-cerna)" stroke="#16191c" stroke-width="1.5"/><line x1="379" y1="94" x2="379" y2="106" stroke="#868e96" stroke-width="1"/><line x1="382" y1="94" x2="382" y2="106" stroke="#868e96" stroke-width="1"/><line x1="385" y1="94" x2="385" y2="106" stroke="#868e96" stroke-width="1"/><line x1="388" y1="94" x2="388" y2="106" stroke="#868e96" stroke-width="1"/><line x1="391" y1="94" x2="391" y2="106" stroke="#868e96" stroke-width="1"/><line x1="394" y1="94" x2="394" y2="106" stroke="#868e96" stroke-width="1"/><line x1="397" y1="94" x2="397" y2="106" stroke="#868e96" stroke-width="1"/><text x="406" y="66" font-size="20" fill="#212529" text-anchor="start" paint-order="stroke" stroke="#f8f9fa" stroke-width="6" stroke-linejoin="round">jezdec</text></g></g><g class="svit"><path d="M606.8 214.3L593.6 209.5" stroke="#d9480f" stroke-width="4" stroke-linecap="round"/><path d="M614.8 200.4L604.0 191.4" stroke="#d9480f" stroke-width="4" stroke-linecap="round"/><path d="M627.0 190.2L620.0 178.0" stroke="#d9480f" stroke-width="4" stroke-linecap="round"/><path d="M642.0 184.7L639.6 170.9" stroke="#d9480f" stroke-width="4" stroke-linecap="round"/><path d="M658.0 184.7L660.4 170.9" stroke="#d9480f" stroke-width="4" stroke-linecap="round"/><path d="M673.0 190.2L680.0 178.0" stroke="#d9480f" stroke-width="4" stroke-linecap="round"/><path d="M685.2 200.4L696.0 191.4" stroke="#d9480f" stroke-width="4" stroke-linecap="round"/><path d="M693.2 214.3L706.4 209.5" stroke="#d9480f" stroke-width="4" stroke-linecap="round"/><circle cx="650" cy="230" r="52" fill="url(#g-zar)"/></g><path d="M636 266 C636 254 616 248 616 230 A34 34 0 1 1 684 230 C684 248 664 254 664 266 Z" fill="#f1f3f5" fill-opacity="0.85" stroke="#868e96" stroke-width="2"/><path class="svit" d="M636 266 C636 254 616 248 616 230 A34 34 0 1 1 684 230 C684 248 664 254 664 266 Z" fill="#ffd43b" opacity="0.85"/><path d="M630 218 A22 22 0 0 1 644 204" fill="none" stroke="#fff" stroke-width="4" stroke-linecap="round" opacity="0.8"/><path d="M643 266 V232 M657 266 V232" stroke="#495057" stroke-width="2"/><path d="M643 232 l3 -6 l3 6 l3 -6 l3 6" fill="none" stroke="#343a40" stroke-width="2" stroke-linejoin="round"/><rect x="635" y="264" width="30" height="24" rx="3" fill="url(#g-kov)" stroke="#495057" stroke-width="1.5"/><path d="M635 268 L665 271" stroke="#868e96" stroke-width="1.5"/><path d="M635 273 L665 276" stroke="#868e96" stroke-width="1.5"/><path d="M635 278 L665 281" stroke="#868e96" stroke-width="1.5"/><path d="M635 283 L665 286" stroke="#868e96" stroke-width="1.5"/><rect x="604" y="286" width="92" height="24" rx="7" fill="#fff" stroke="#868e96" stroke-width="2"/><rect x="604" y="302" width="92" height="8" rx="4" fill="#dee2e6"/><circle cx="616" cy="297" r="7" fill="#ced4da" stroke="#495057" stroke-width="1.5"/><path d="M612 297H620" stroke="#495057" stroke-width="1.5"/><circle cx="684" cy="297" r="7" fill="#ced4da" stroke="#495057" stroke-width="1.5"/><path d="M680 297H688" stroke="#495057" stroke-width="1.5"/><path d="M449 280 C449 330 530 297 610 297" fill="none" stroke="#495057" stroke-width="6" stroke-linecap="round" stroke-linejoin="round"/><path d="M449 280 C449 330 530 297 610 297" fill="none" stroke="#adb5bd" stroke-width="1.5" stroke-linecap="round" opacity="0.8"/><path d="M690 297 H806 Q836 297 836 327 V440 Q836 470 806 470 H762" fill="none" stroke="#495057" stroke-width="6" stroke-linecap="round" stroke-linejoin="round"/><path d="M690 297 H806 Q836 297 836 327 V440 Q836 470 806 470 H762" fill="none" stroke="#adb5bd" stroke-width="1.5" stroke-linecap="round" opacity="0.8"/><rect x="546" y="482" width="218" height="16" rx="5" fill="#495057"/><rect x="546" y="456" width="8" height="34" rx="2" fill="#adb5bd" stroke="#495057"/><rect x="756" y="456" width="8" height="34" rx="2" fill="#adb5bd" stroke="#495057"/><rect x="560" y="450" width="180" height="40" rx="8" fill="url(#g-cerna)" stroke="#16191c" stroke-width="1.5"/><path d="M659.0 450 H732 Q740 450 740 458 V482 Q740 490 732 490 H659.0 Z" fill="url(#g-meda)"/><rect x="740" y="462" width="12" height="16" rx="3" fill="url(#g-kov)" stroke="#495057"/><path d="M691.4 470H709.4M700.4 461V479" stroke="#fff" stroke-width="4" stroke-linecap="round"/><path d="M596.0 470H614.0" stroke="#fff" stroke-width="4" stroke-linecap="round"/><path d="M747 432H765M756 423V441" stroke="#c92a2a" stroke-width="4" stroke-linecap="round"/><path d="M551 432H569" stroke="#1864ab" stroke-width="4" stroke-linecap="round"/><path d="M546 470 C470 470 400 478 297 478" fill="none" stroke="#495057" stroke-width="6" stroke-linecap="round" stroke-linejoin="round"/><path d="M546 470 C470 470 400 478 297 478" fill="none" stroke="#adb5bd" stroke-width="1.5" stroke-linecap="round" opacity="0.8"/><rect x="190" y="490" width="140" height="16" rx="3" fill="url(#g-cerna)"/><rect x="204" y="464" width="30" height="26" rx="3" fill="url(#g-mosaz)" stroke="#8a6a25"/><rect x="276" y="464" width="30" height="26" rx="3" fill="url(#g-mosaz)" stroke="#8a6a25"/><circle cx="219" cy="478" r="5" fill="#ced4da" stroke="#495057"/><circle cx="291" cy="478" r="5" fill="#ced4da" stroke="#495057"/><rect x="212" y="454" width="104" height="10" rx="3" fill="url(#g-mosaz)" stroke="#8a6a25"/><circle cx="219" cy="459" r="5" fill="#ced4da" stroke="#495057"/><rect x="308" y="450" width="34" height="18" rx="9" fill="url(#g-cerna)"/><line x1="470" y1="352" x2="449" y2="300" stroke="#f8f9fa" stroke-width="5" stroke-linecap="round"/><line x1="470" y1="352" x2="449" y2="300" stroke="#212529" stroke-width="2" stroke-linecap="round"/><circle cx="449" cy="300" r="4" fill="#212529"/><text x="480" y="376" font-size="20" fill="#212529" text-anchor="middle" paint-order="stroke" stroke="#f8f9fa" stroke-width="6" stroke-linejoin="round">krajní svorka</text><text x="240" y="376" font-size="20" font-weight="bold" fill="#212529" text-anchor="middle">reostat</text><text x="650" y="140" font-size="20" fill="#212529" text-anchor="middle">žárovka</text><text x="650" y="530" font-size="20" fill="#212529" text-anchor="middle">baterie</text><text x="260" y="538" font-size="20" fill="#212529" text-anchor="middle">spínač</text><g class="proud"><line x1="864" y1="410" x2="864" y2="350" stroke="#e8590c" stroke-width="7" stroke-linecap="round" marker-end="url(#v-ora)"/><text x="886" y="388" font-size="22" font-weight="bold" fill="#c2410c" font-family="Georgia, 'Times New Roman', serif" text-anchor="middle">I</text><line x1="588" y1="262" x2="548" y2="262" stroke="#e8590c" stroke-width="7" stroke-linecap="round" marker-end="url(#v-ora)"/><text x="568" y="246" font-size="22" font-weight="bold" fill="#c2410c" font-family="Georgia, 'Times New Roman', serif" text-anchor="middle">I</text><line x1="420" y1="446" x2="470" y2="446" stroke="#e8590c" stroke-width="7" stroke-linecap="round" marker-end="url(#v-ora)"/><text x="445" y="432" font-size="22" font-weight="bold" fill="#c2410c" font-family="Georgia, 'Times New Roman', serif" text-anchor="middle">I</text><line x1="20" y1="250" x2="20" y2="310" stroke="#e8590c" stroke-width="7" stroke-linecap="round" marker-end="url(#v-ora)"/><text x="20" y="238" font-size="22" font-weight="bold" fill="#c2410c" font-family="Georgia, 'Times New Roman', serif" text-anchor="middle">I</text></g><line x1="40" y1="562" x2="860" y2="562" stroke="#dee2e6" stroke-width="3"/><path d="M175 700H80V760H180M240 760H362M380 760H470V640H386M334 640H270" fill="none" stroke="#212529" stroke-width="4" stroke-linecap="square" stroke-linejoin="miter"/><path d="M124 640H150" fill="none" stroke="#212529" stroke-width="4" stroke-linecap="square" stroke-linejoin="miter"/><rect x="150" y="622.0" width="120" height="36" fill="#fff" stroke="#212529" stroke-width="4"/><line x1="175" y1="700" x2="300" y2="598" stroke="#212529" stroke-width="4" marker-end="url(#v-ink)"/><g class="svit"><path d="M330.6 623.0L321.9 618.0" stroke="#d9480f" stroke-width="4" stroke-linecap="round"/><path d="M360.0 606.0L360.0 596.0" stroke="#d9480f" stroke-width="4" stroke-linecap="round"/><path d="M389.4 623.0L398.1 618.0" stroke="#d9480f" stroke-width="4" stroke-linecap="round"/><path d="M389.4 657.0L398.1 662.0" stroke="#d9480f" stroke-width="4" stroke-linecap="round"/><path d="M360.0 674.0L360.0 684.0" stroke="#d9480f" stroke-width="4" stroke-linecap="round"/><path d="M330.6 657.0L321.9 662.0" stroke="#d9480f" stroke-width="4" stroke-linecap="round"/><circle cx="360" cy="640" r="26" fill="#ffd43b"/></g><circle cx="360" cy="640" r="26" fill="none" stroke="#212529" stroke-width="4"/><path d="M341.6 621.6L378.4 658.4M378.4 621.6L341.6 658.4" stroke="#212529" stroke-width="4"/><circle cx="180" cy="760" r="6" fill="#fff" stroke="#212529" stroke-width="3"/><circle cx="240" cy="760" r="6" fill="#fff" stroke="#212529" stroke-width="3"/><path d="M186 759L234 759" stroke="#212529" stroke-width="4" stroke-linecap="round"/><path d="M380 734V786" stroke="#212529" stroke-width="4"/><path d="M362 746V774" stroke="#212529" stroke-width="9"/><path d="M393 730H411M402 721V739" stroke="#c92a2a" stroke-width="4" stroke-linecap="round"/><path d="M331 730H349" stroke="#1864ab" stroke-width="4" stroke-linecap="round"/><rect x="526" y="604" width="36" height="22" fill="#e8590c" opacity="0.4"/><rect x="526" y="604" width="36" height="22" fill="none" stroke="#e8590c" stroke-width="2"/><text x="574" y="622" font-size="20" fill="#212529" text-anchor="start">zapojená část drátu</text><text x="526" y="676" font-size="20" font-weight="bold" fill="#212529" text-anchor="start">Kratší zapojený drát:</text><text x="526" y="702" font-size="20" fill="#212529" text-anchor="start">menší odpor → větší proud</text><text x="526" y="746" font-size="20" font-weight="bold" fill="#212529" text-anchor="start">Delší zapojený drát:</text><text x="526" y="772" font-size="20" fill="#212529" text-anchor="start">větší odpor → menší proud</text></svg>
