<svg xmlns="http://www.w3.org/2000/svg" xml:space="preserve" viewBox="0 0 900 545" font-family="'Segoe UI', Helvetica, Arial, sans-serif" role="img" aria-label="Jízdní řád: odjezd 10:40, příjezd 10:52, 12 kilometrů za 12 minut">
<defs>
<marker id="a-cer" markerUnits="userSpaceOnUse" markerWidth="18" markerHeight="18" refX="15" refY="9" orient="auto"><path d="M0,0 L18,9 L0,18 z" fill="#e03131"/></marker>
<marker id="a-mod" markerUnits="userSpaceOnUse" markerWidth="18" markerHeight="18" refX="15" refY="9" orient="auto"><path d="M0,0 L18,9 L0,18 z" fill="#1971c2"/></marker>
<marker id="a-zel" markerUnits="userSpaceOnUse" markerWidth="18" markerHeight="18" refX="15" refY="9" orient="auto"><path d="M0,0 L18,9 L0,18 z" fill="#2f9e44"/></marker>
<marker id="a-ora" markerUnits="userSpaceOnUse" markerWidth="18" markerHeight="18" refX="15" refY="9" orient="auto"><path d="M0,0 L18,9 L0,18 z" fill="#e8590c"/></marker>
<marker id="a-ink" markerUnits="userSpaceOnUse" markerWidth="18" markerHeight="18" refX="15" refY="9" orient="auto"><path d="M0,0 L18,9 L0,18 z" fill="#2b2a26"/></marker>
<marker id="a-sed" markerUnits="userSpaceOnUse" markerWidth="18" markerHeight="18" refX="15" refY="9" orient="auto"><path d="M0,0 L18,9 L0,18 z" fill="#495057"/></marker>
<marker id="a-fia" markerUnits="userSpaceOnUse" markerWidth="18" markerHeight="18" refX="15" refY="9" orient="auto"><path d="M0,0 L18,9 L0,18 z" fill="#7048e8"/></marker>
</defs>
<rect x="3" y="3" width="894" height="539" rx="14" fill="#f8f9fa" stroke="#2b2a26" stroke-width="3"/>
<text x="450.0" y="44.0" font-size="26" font-weight="bold" fill="#2b2a26" text-anchor="middle">Jízdní řád: linka Lipová – Dub</text>
<text x="50.0" y="92.0" font-size="22" font-weight="bold" fill="#1971c2" text-anchor="start">km</text>
<text x="150.0" y="92.0" font-size="22" font-weight="bold" fill="#e03131" text-anchor="middle">čas</text>
<text x="250.0" y="92.0" font-size="22" font-weight="bold" fill="#2b2a26" text-anchor="start">zastávka</text>
<line x1="30.0" y1="104.0" x2="640.0" y2="104.0" stroke="#2b2a26" stroke-width="3" stroke-linecap="round"/>
<text x="66.0" y="146.0" font-size="24" font-weight="bold" fill="#1971c2" text-anchor="middle">0</text>
<text x="150.0" y="146.0" font-size="24" font-weight="bold" fill="#e03131" text-anchor="middle">10:40</text>
<text x="250.0" y="146.0" font-size="24" font-weight="bold" fill="#2b2a26" text-anchor="start">Lipová, náměstí</text>
<line x1="250" y1="156" x2="640" y2="156" stroke="#adb5bd" stroke-width="2" stroke-dasharray="2 8" stroke-linecap="round"/>
<line x1="200.0" y1="160.0" x2="200.0" y2="192.0" stroke="#2b2a26" stroke-width="2.5" marker-end="url(#a-ink)" stroke-linecap="round"/>
<text x="66.0" y="208.0" font-size="24" font-weight="bold" fill="#1971c2" text-anchor="middle">2</text>
<text x="150.0" y="208.0" font-size="24" font-weight="bold" fill="#e03131" text-anchor="middle">10:43</text>
<text x="250.0" y="208.0" font-size="24" fill="#2b2a26" text-anchor="start">Lipová, škola</text>
<line x1="250" y1="218" x2="640" y2="218" stroke="#adb5bd" stroke-width="2" stroke-dasharray="2 8" stroke-linecap="round"/>
<line x1="200.0" y1="222.0" x2="200.0" y2="254.0" stroke="#2b2a26" stroke-width="2.5" marker-end="url(#a-ink)" stroke-linecap="round"/>
<text x="66.0" y="270.0" font-size="24" font-weight="bold" fill="#1971c2" text-anchor="middle">5</text>
<text x="150.0" y="270.0" font-size="24" font-weight="bold" fill="#e03131" text-anchor="middle">10:46</text>
<text x="250.0" y="270.0" font-size="24" fill="#2b2a26" text-anchor="start">Hájek, rozcestí</text>
<line x1="250" y1="280" x2="640" y2="280" stroke="#adb5bd" stroke-width="2" stroke-dasharray="2 8" stroke-linecap="round"/>
<line x1="200.0" y1="284.0" x2="200.0" y2="316.0" stroke="#2b2a26" stroke-width="2.5" marker-end="url(#a-ink)" stroke-linecap="round"/>
<text x="66.0" y="332.0" font-size="24" font-weight="bold" fill="#1971c2" text-anchor="middle">8</text>
<text x="150.0" y="332.0" font-size="24" font-weight="bold" fill="#e03131" text-anchor="middle">10:49</text>
<text x="250.0" y="332.0" font-size="24" fill="#2b2a26" text-anchor="start">Dub, nádraží</text>
<line x1="250" y1="342" x2="640" y2="342" stroke="#adb5bd" stroke-width="2" stroke-dasharray="2 8" stroke-linecap="round"/>
<line x1="200.0" y1="346.0" x2="200.0" y2="378.0" stroke="#2b2a26" stroke-width="2.5" marker-end="url(#a-ink)" stroke-linecap="round"/>
<text x="66.0" y="394.0" font-size="24" font-weight="bold" fill="#1971c2" text-anchor="middle">12</text>
<text x="150.0" y="394.0" font-size="24" font-weight="bold" fill="#e03131" text-anchor="middle">10:52</text>
<text x="250.0" y="394.0" font-size="24" font-weight="bold" fill="#2b2a26" text-anchor="start">Dub, náměstí</text>
<line x1="250" y1="404" x2="640" y2="404" stroke="#adb5bd" stroke-width="2" stroke-dasharray="2 8" stroke-linecap="round"/>
<path d="M650,130 L670,130 L670,388 L650,388" fill="none" stroke="#e8590c" stroke-width="4"/>
<rect x="695.0" y="190.0" width="185.0" height="140.0" rx="12" fill="#fff3bf" stroke="#f08c00" stroke-width="2"/>
<text x="787.5" y="223.1" font-size="22" fill="#2b2a26" text-anchor="middle">celkem</text>
<text x="787.5" y="252.8" font-size="22" fill="#2b2a26" text-anchor="middle">12 km</text>
<text x="787.5" y="282.5" font-size="22" fill="#2b2a26" text-anchor="middle">za</text>
<text x="787.5" y="312.2" font-size="22" fill="#2b2a26" text-anchor="middle">12 min</text>
<text x="50.0" y="440.0" font-size="22" font-weight="bold" fill="#e03131" text-anchor="start">Čas odečteme: 10:52 − 10:40 = 12 min (po zastávkách 3, 6, 9, 12 min).</text>
<text x="50.0" y="474.0" font-size="22" font-weight="bold" fill="#2b2a26" text-anchor="start">Autobus ujede 12 km za 12 minut.</text>
<text x="50.0" y="508.0" font-size="21" fill="#495057" text-anchor="start">Z jízdního řádu vypočteme průměrnou rychlost autobusu.</text>
</svg>
