<svg xmlns="http://www.w3.org/2000/svg" xml:space="preserve" viewBox="0 0 960 510" font-family="'Segoe UI', Helvetica, Arial, sans-serif" role="img" aria-label="Tři příklady využití elektromagnetické indukce s popisky: indukční varná deska, bezdrátová nabíječka a transformační stanice.">
<defs>
<marker id="a-cer" markerUnits="userSpaceOnUse" markerWidth="18" markerHeight="18" refX="15" refY="9" orient="auto"><path d="M0,0 L18,9 L0,18 z" fill="#e03131"/></marker>
<marker id="a-mod" markerUnits="userSpaceOnUse" markerWidth="18" markerHeight="18" refX="15" refY="9" orient="auto"><path d="M0,0 L18,9 L0,18 z" fill="#1971c2"/></marker>
<marker id="a-zel" markerUnits="userSpaceOnUse" markerWidth="18" markerHeight="18" refX="15" refY="9" orient="auto"><path d="M0,0 L18,9 L0,18 z" fill="#2f9e44"/></marker>
<marker id="a-ora" markerUnits="userSpaceOnUse" markerWidth="18" markerHeight="18" refX="15" refY="9" orient="auto"><path d="M0,0 L18,9 L0,18 z" fill="#e8590c"/></marker>
<marker id="a-ink" markerUnits="userSpaceOnUse" markerWidth="18" markerHeight="18" refX="15" refY="9" orient="auto"><path d="M0,0 L18,9 L0,18 z" fill="#2b2a26"/></marker>
<marker id="a-sed" markerUnits="userSpaceOnUse" markerWidth="18" markerHeight="18" refX="15" refY="9" orient="auto"><path d="M0,0 L18,9 L0,18 z" fill="#495057"/></marker>
<marker id="a-zlu" markerUnits="userSpaceOnUse" markerWidth="18" markerHeight="18" refX="15" refY="9" orient="auto"><path d="M0,0 L18,9 L0,18 z" fill="#f08c00"/></marker>
<marker id="a-fia" markerUnits="userSpaceOnUse" markerWidth="18" markerHeight="18" refX="15" refY="9" orient="auto"><path d="M0,0 L18,9 L0,18 z" fill="#7048e8"/></marker>
<marker id="b-cer" markerUnits="userSpaceOnUse" markerWidth="26" markerHeight="26" refX="23" refY="13" orient="auto"><path d="M0,0 L26,13 L0,26 z" fill="#e03131"/></marker>
<marker id="b-zel" markerUnits="userSpaceOnUse" markerWidth="26" markerHeight="26" refX="23" refY="13" orient="auto"><path d="M0,0 L26,13 L0,26 z" fill="#2f9e44"/></marker>
<marker id="b-mod" markerUnits="userSpaceOnUse" markerWidth="26" markerHeight="26" refX="23" refY="13" orient="auto"><path d="M0,0 L26,13 L0,26 z" fill="#1971c2"/></marker>
<marker id="b-ora" markerUnits="userSpaceOnUse" markerWidth="26" markerHeight="26" refX="23" refY="13" orient="auto"><path d="M0,0 L26,13 L0,26 z" fill="#e8590c"/></marker>
<marker id="b-ink" markerUnits="userSpaceOnUse" markerWidth="26" markerHeight="26" refX="23" refY="13" orient="auto"><path d="M0,0 L26,13 L0,26 z" fill="#2b2a26"/></marker>
</defs>
<rect x="3" y="3" width="954" height="504" rx="14" fill="#f8f9fa" stroke="#2b2a26" stroke-width="3"/>
<text x="480.0" y="44.0" font-size="26" font-weight="bold" fill="#2b2a26" text-anchor="middle">Kde se indukce využívá</text>
<rect x="30.0" y="80.0" width="280.0" height="400.0" rx="14" fill="#ffffff" stroke="#1971c2" stroke-width="3"/>
<text x="170.0" y="116.0" font-size="22" font-weight="bold" fill="#2b2a26" text-anchor="middle">indukční varná deska</text>
<rect x="340.0" y="80.0" width="280.0" height="400.0" rx="14" fill="#ffffff" stroke="#1971c2" stroke-width="3"/>
<text x="480.0" y="116.0" font-size="22" font-weight="bold" fill="#2b2a26" text-anchor="middle">bezdrátová nabíječka</text>
<rect x="650.0" y="80.0" width="280.0" height="400.0" rx="14" fill="#ffffff" stroke="#1971c2" stroke-width="3"/>
<text x="790.0" y="116.0" font-size="22" font-weight="bold" fill="#2b2a26" text-anchor="middle">transformační stanice</text>
<rect x="70.0" y="330.0" width="200.0" height="16.0" rx="3" fill="#ced4da" stroke="#495057" stroke-width="3"/>
<ellipse cx="92" cy="372" rx="12" ry="16" fill="#f4c48a" stroke="#8a5a2b" stroke-width="3"/>
<ellipse cx="123" cy="372" rx="12" ry="16" fill="#f4c48a" stroke="#8a5a2b" stroke-width="3"/>
<ellipse cx="154" cy="372" rx="12" ry="16" fill="#f4c48a" stroke="#8a5a2b" stroke-width="3"/>
<ellipse cx="185" cy="372" rx="12" ry="16" fill="#f4c48a" stroke="#8a5a2b" stroke-width="3"/>
<ellipse cx="216" cy="372" rx="12" ry="16" fill="#f4c48a" stroke="#8a5a2b" stroke-width="3"/>
<ellipse cx="247" cy="372" rx="12" ry="16" fill="#f4c48a" stroke="#8a5a2b" stroke-width="3"/>
<path d="M90.0,210.0 L250.0,210.0 L236.0,326.0 L104.0,326.0 z" fill="#495057" stroke="#2b2a26" stroke-width="3" stroke-linejoin="round" stroke-linecap="round"/>
<line x1="250.0" y1="232.0" x2="292.0" y2="232.0" stroke="#2b2a26" stroke-width="8" stroke-linecap="round"/>
<path d="M114,260 q10,-12 20,0 t20,0 t20,0 t20,0" fill="none" stroke="#74c0fc" stroke-width="4" stroke-linejoin="round" stroke-linecap="round"/>
<path d="M114,284 q10,-12 20,0 t20,0 t20,0 t20,0" fill="none" stroke="#74c0fc" stroke-width="4" stroke-linejoin="round" stroke-linecap="round"/>
<path d="M122,318 q48,-12 96,0" fill="none" stroke="#e8590c" stroke-width="5" stroke-linejoin="round" stroke-linecap="round" marker-end="url(#a-ora)"/>
<text x="170.0" y="420.0" font-size="20" fill="#2b2a26" text-anchor="middle">cívka pod deskou,</text>
<text x="170.0" y="446.0" font-size="20" fill="#2b2a26" text-anchor="middle">zahřívá se dno hrnce</text>
<text x="170.0" y="470.0" font-size="20" fill="#2b2a26" text-anchor="start"></text>
<rect x="380.0" y="350.0" width="200.0" height="22.0" rx="6" fill="#adb5bd" stroke="#495057" stroke-width="3"/>
<ellipse cx="420" cy="361" rx="10" ry="7" fill="#f4c48a" stroke="#8a5a2b" stroke-width="2"/>
<ellipse cx="450" cy="361" rx="10" ry="7" fill="#f4c48a" stroke="#8a5a2b" stroke-width="2"/>
<ellipse cx="480" cy="361" rx="10" ry="7" fill="#f4c48a" stroke="#8a5a2b" stroke-width="2"/>
<ellipse cx="510" cy="361" rx="10" ry="7" fill="#f4c48a" stroke="#8a5a2b" stroke-width="2"/>
<ellipse cx="540" cy="361" rx="10" ry="7" fill="#f4c48a" stroke="#8a5a2b" stroke-width="2"/>
<rect x="410.0" y="262.0" width="140.0" height="26.0" rx="8" fill="#343a40" stroke="#2b2a26" stroke-width="3"/>
<rect x="418.0" y="267.0" width="124.0" height="12.0" rx="3" fill="#74c0fc" stroke="#1971c2" stroke-width="2"/>
<path d="M456.0,344 Q480,312 504.0,344" fill="none" stroke="#1971c2" stroke-width="3" stroke-linejoin="round" stroke-linecap="round" stroke-dasharray="7 6"/>
<path d="M435.0,344 Q480,284 525.0,344" fill="none" stroke="#1971c2" stroke-width="3" stroke-linejoin="round" stroke-linecap="round" stroke-dasharray="7 6"/>
<path d="M414.0,344 Q480,256 546.0,344" fill="none" stroke="#1971c2" stroke-width="3" stroke-linejoin="round" stroke-linecap="round" stroke-dasharray="7 6"/>
<text x="480.0" y="250.0" font-size="20" fill="#2b2a26" text-anchor="middle">telefon</text>
<text x="480.0" y="420.0" font-size="20" fill="#2b2a26" text-anchor="middle">cívka v podložce,</text>
<text x="480.0" y="446.0" font-size="20" fill="#2b2a26" text-anchor="middle">energie bez drátů</text>
<line x1="684.0" y1="200.0" x2="684.0" y2="380.0" stroke="#8a5a2b" stroke-width="8" stroke-linecap="round"/>
<line x1="668.0" y1="214.0" x2="700.0" y2="214.0" stroke="#8a5a2b" stroke-width="6" stroke-linecap="round"/>
<line x1="896.0" y1="200.0" x2="896.0" y2="380.0" stroke="#8a5a2b" stroke-width="8" stroke-linecap="round"/>
<line x1="880.0" y1="214.0" x2="912.0" y2="214.0" stroke="#8a5a2b" stroke-width="6" stroke-linecap="round"/>
<line x1="684.0" y1="214.0" x2="750.0" y2="262.0" stroke="#2b2a26" stroke-width="2" stroke-linecap="round"/>
<line x1="896.0" y1="214.0" x2="830.0" y2="262.0" stroke="#2b2a26" stroke-width="2" stroke-linecap="round"/>
<rect x="746.0" y="280.0" width="88.0" height="100.0" rx="3" fill="#ffc9c9" stroke="#a61e1e" stroke-width="3"/>
<path d="M738.0,282.0 L790.0,244.0 L842.0,282.0 z" fill="#e03131" stroke="#a61e1e" stroke-width="3" stroke-linejoin="round" stroke-linecap="round"/>
<path d="M790.0,300.0 L770.0,340.0 L810.0,340.0 z" fill="#ffe066" stroke="#2b2a26" stroke-width="3" stroke-linejoin="round" stroke-linecap="round"/>
<path d="M792,308 L782,326 L792,326 L786,338" fill="none" stroke="#2b2a26" stroke-width="3" stroke-linejoin="round" stroke-linecap="round"/>
<line x1="650.0" y1="380.0" x2="930.0" y2="380.0" stroke="#adb5bd" stroke-width="4" stroke-linecap="round"/>
<text x="790.0" y="420.0" font-size="20" fill="#2b2a26" text-anchor="middle">mění napětí při přenosu</text>
<text x="790.0" y="446.0" font-size="20" fill="#2b2a26" text-anchor="middle">elektrické energie</text>
</svg>
